<svg width="400" height="300" viewBox="0 0 400 300" fill="none" xmlns="http://www.w3.org/2000/svg">
  <rect width="400" height="300" fill="#FDF5E6"/>
  <path d="M100 100 L100 160 Q100 180 120 180 L180 180 Q200 180 200 160 L200 100 Z" fill="#E8E8E8" stroke="#A9A9A9" stroke-width="2"/>
  <ellipse cx="150" cy="100" rx="50" ry="15" fill="#D3D3D3" stroke="#A9A9A9" stroke-width="2"/>
  <path d="M200 120 Q230 120 230 140 Q230 160 200 160" fill="none" stroke="#A9A9A9" stroke-width="3"/>
  <rect x="90" y="190" width="120" height="80" rx="5" fill="#DEB887" stroke="#8B4513" stroke-width="2"/>
  <rect x="100" y="200" width="100" height="60" rx="3" fill="#F5DEB3" stroke="#8B4513" stroke-width="1"/>
  <path d="M250 110 L250 150 Q250 165 265 165 L315 165 Q330 165 330 150 L330 110 Z" fill="#E8E8E8" stroke="#A9A9A9" stroke-width="2"/>
  <ellipse cx="290" cy="110" rx="40" ry="12" fill="#D3D3D3" stroke="#A9A9A9" stroke-width="2"/>
  <path d="M330 125 Q355 125 355 140 Q355 155 330 155" fill="none" stroke="#A9A9A9" stroke-width="3"/>
  <text x="200" y="290" font-family="Arial, sans-serif" font-size="14" fill="#696969" text-anchor="middle">Ceramic Mug Gift Box</text>
</svg>
