<svg width="400" height="300" viewBox="0 0 400 300" fill="none" xmlns="http://www.w3.org/2000/svg">
  <rect width="400" height="300" fill="#F5F5DC"/>
  <path d="M80 80 L80 180 Q80 200 100 200 L160 200 Q180 200 180 180 L180 80 Z" fill="#D2B48C" stroke="#8B7355" stroke-width="2"/>
  <path d="M90 90 L90 170 Q90 185 105 185 L155 185 Q170 185 170 170 L170 90 Z" fill="#DEB887" stroke="#8B7355" stroke-width="1"/>
  <line x1="85" y1="100" x2="175" y2="100" stroke="#8B7355" stroke-width="1"/>
  <line x1="85" y1="120" x2="175" y2="120" stroke="#8B7355" stroke-width="1"/>
  <line x1="85" y1="140" x2="175" y2="140" stroke="#8B7355" stroke-width="1"/>
  <line x1="85" y1="160" x2="175" y2="160" stroke="#8B7355" stroke-width="1"/>
  <path d="M220 100 L220 170 Q220 185 235 185 L285 185 Q300 185 300 170 L300 100 Z" fill="#D2B48C" stroke="#8B7355" stroke-width="2"/>
  <path d="M230 110 L230 160 Q230 170 240 170 L280 170 Q290 170 290 160 L290 110 Z" fill="#DEB887" stroke="#8B7355" stroke-width="1"/>
  <line x1="225" y1="120" x2="295" y2="120" stroke="#8B7355" stroke-width="1"/>
  <line x1="225" y1="140" x2="295" y2="140" stroke="#8B7355" stroke-width="1"/>
  <line x1="225" y1="155" x2="295" y2="155" stroke="#8B7355" stroke-width="1"/>
  <text x="200" y="250" font-family="Arial, sans-serif" font-size="14" fill="#8B7355" text-anchor="middle">Jute Storage Basket Set</text>
</svg>
