<svg width="128" height="128" viewBox="0 0 128 128" fill="none" xmlns="http://www.w3.org/2000/svg">
  <rect width="128" height="128" rx="28" fill="#0F4D3C"/>
  <path d="M64 24C44.72 35.76 34 52.04 34 72C34 88.56 47.44 102 64 102C80.56 102 94 88.56 94 72C94 52.04 83.28 35.76 64 24Z" fill="#D89B37" fill-opacity="0.18"/>
  <path d="M70.645 34C51.047 40.854 39 55.906 39 74.275C39 88.214 50.138 98 63.8 98C75.568 98 85.768 90.826 89 79.617C73.309 82.06 60.281 74.445 56.58 61.462C53.884 52.005 57.123 42.564 64.682 35.349C66.518 33.597 69.195 33.493 70.645 34Z" fill="#F8E7C8"/>
  <path d="M78.321 38C66.235 43.365 59 52.694 59 64.601C59 74.991 65.899 83 76.197 83C82.478 83 88.143 79.9 92 74.786C91.951 57.932 86.967 45.659 78.321 38Z" fill="#F3F7F1"/>
</svg>
